<svg xmlns="http://www.w3.org/2000/svg" xmlns:xlink="http://www.w3.org/1999/xlink" viewBox="0 0 117 20"><defs><style>.cls-1{fill:none;}.cls-2{isolation:isolate;}.cls-3{clip-path:url(#clip-path);}.cls-4{fill:#565555;}.cls-5{fill:#0c7dc1;}.cls-6{fill:url(#linear-gradient);}.cls-7{opacity:0.35;mix-blend-mode:darken;fill:#1d1d1b;}.cls-7,.cls-8{font-size:12px;font-family:Verdana;}.cls-8{fill:#fff;}.cls-9{fill:#a8daef;}</style><clipPath id="clip-path"><rect class="cls-1" width="117" height="20" rx="3"/></clipPath><linearGradient id="linear-gradient" x1="-236.46" y1="410.34" x2="-236.46" y2="409.34" gradientTransform="matrix(117, 0, 0, -20, 27724, 8206.8)" gradientUnits="userSpaceOnUse"><stop offset="0" stop-color="#bababa" stop-opacity="0.1"/><stop offset="1" stop-opacity="0.1"/></linearGradient></defs><g class="cls-2"><g id="Layer_1" data-name="Layer 1"><g class="cls-3"><path class="cls-4" d="M0,0H30V20H0Z"/><path class="cls-5" d="M30,0h87V20H30Z"/><path class="cls-6" d="M0,0H117V20H0Z"/></g><text class="cls-7" transform="translate(42.38 14.76)">Kritik Seth</text><text class="cls-8" transform="translate(41.83 14.07)">Kritik Seth</text><polygon class="cls-9" points="9.93 12.96 8.96 13.79 21.6 13.79 20.66 12.96 20.36 12.96 21.15 13.64 9.39 13.64 10.22 12.96 9.93 12.96"/><path class="cls-9" d="M8.85,15.22H21.69A.75.75,0,0,0,22,13.78l-1.09-1a.88.88,0,0,0,.79-.88V5.15a.89.89,0,0,0-.89-.89H9.73a.89.89,0,0,0-.89.89v6.78a.89.89,0,0,0,.83.89l-1.13,1a.74.74,0,0,0-.31.27h0a.82.82,0,0,0-.12.41A.76.76,0,0,0,8.85,15.22Zm.3-.51A.15.15,0,0,1,9,14.56a.15.15,0,0,1,.3,0A.15.15,0,0,1,9.15,14.71Zm.59,0a.15.15,0,0,1-.15-.15.15.15,0,0,1,.3,0A.15.15,0,0,1,9.74,14.71Zm.63,0a.15.15,0,0,1-.15-.15.15.15,0,0,1,.3,0A.15.15,0,0,1,10.37,14.71Zm5.43,0H14.55a.15.15,0,0,1-.15-.15.15.15,0,0,1,.15-.14H15.8a.14.14,0,0,1,.15.14A.14.14,0,0,1,15.8,14.71Zm-.53-9.92a.17.17,0,0,1,.17.16.18.18,0,0,1-.17.17A.17.17,0,0,1,15.11,5,.16.16,0,0,1,15.27,4.79Zm-5.62,6.7V5.59H20.89v5.9ZM9.93,13h.29l-.83.68H21.15L20.36,13h.3l.94.83H9Z"/></g></g></svg>
