<svg xmlns="http://www.w3.org/2000/svg" xmlns:xlink="http://www.w3.org/1999/xlink" width="117" height="20"><linearGradient id="b" x2="0" y2="100%"><stop offset="0" stop-color="#bbb" stop-opacity=".1"/><stop offset="1" stop-opacity=".1"/></linearGradient><clipPath id="a"><rect width="117" height="20" rx="3" fill="#fff"/></clipPath><g clip-path="url(#a)"><path fill="#555" d="M0 0h30v20H0z"/><path fill="#007ec6" d="M30 0h87v20H30z"/><path fill="url(#b)" d="M0 0h117v20H0z"/></g><g fill="#fff" text-anchor="middle" font-family="DejaVu Sans,Verdana,Geneva,sans-serif" font-size="110"><svg x="4px" y="0px" width="22px" height="20px" viewBox="1 -2 28 24" style="background-color: #fff;border-radius: 1px;"><polygon class="cls-9" points="9.93 12.96 8.96 13.79 21.6 13.79 20.66 12.96 20.36 12.96 21.15 13.64 9.39 13.64 10.22 12.96 9.93 12.96"/><path class="cls-9" d="M8.85,15.22H21.69A.75.75,0,0,0,22,13.78l-1.09-1a.88.88,0,0,0,.79-.88V5.15a.89.89,0,0,0-.89-.89H9.73a.89.89,0,0,0-.89.89v6.78a.89.89,0,0,0,.83.89l-1.13,1a.74.74,0,0,0-.31.27h0a.82.82,0,0,0-.12.41A.76.76,0,0,0,8.85,15.22Zm.3-.51A.15.15,0,0,1,9,14.56a.15.15,0,0,1,.3,0A.15.15,0,0,1,9.15,14.71Zm.59,0a.15.15,0,0,1-.15-.15.15.15,0,0,1,.3,0A.15.15,0,0,1,9.74,14.71Zm.63,0a.15.15,0,0,1-.15-.15.15.15,0,0,1,.3,0A.15.15,0,0,1,10.37,14.71Zm5.43,0H14.55a.15.15,0,0,1-.15-.15.15.15,0,0,1,.15-.14H15.8a.14.14,0,0,1,.15.14A.14.14,0,0,1,15.8,14.71Zm-.53-9.92a.17.17,0,0,1,.17.16.18.18,0,0,1-.17.17A.17.17,0,0,1,15.11,5,.16.16,0,0,1,15.27,4.79Zm-5.62,6.7V5.59H20.89v5.9ZM9.93,13h.29l-.83.68H21.15L20.36,13h.3l.94.83H9Z"/></svg><text x="245" y="140" transform="scale(.1)" textLength="30"></text><text x="725" y="150" fill="#010101" fill-opacity=".3" transform="scale(.1)" textLength="770">Kritik Seth</text><text x="725" y="140" transform="scale(.1)" textLength="770">Kritik Seth</text></g> </svg>
