<svg xmlns="http://www.w3.org/2000/svg" xmlns:xlink="http://www.w3.org/1999/xlink" viewBox="0 0 117 20"><defs><style>.cls-1{fill:none;}.cls-2{isolation:isolate;}.cls-3{clip-path:url(#clip-path);}.cls-4{fill:#565656;}.cls-5{fill:#107ec2;}.cls-6{fill:url(#linear-gradient);}.cls-7{opacity:0.35;mix-blend-mode:darken;fill:#1d1d1b;}.cls-7,.cls-8{font-size:12px;font-family:Verdana;}.cls-8{fill:#fff;}.cls-9{fill:#a9dbf0;}</style><clipPath id="clip-path" transform="translate(-239.3 -411.34)"><rect class="cls-1" x="239.3" y="411.34" width="117" height="20" rx="3"/></clipPath><linearGradient id="linear-gradient" x1="3.54" y1="821.44" x2="3.54" y2="820.44" gradientTransform="matrix(117, 0, 0, -20, -116, 16840.11)" gradientUnits="userSpaceOnUse"><stop offset="0" stop-color="#bbb" stop-opacity="0.1"/><stop offset="1" stop-color="#010101" stop-opacity="0.1"/></linearGradient></defs><g class="cls-2"><g id="Layer_1" data-name="Layer 1"><g class="cls-3"><path class="cls-4" d="M239.3,411.34h30v20h-30Z" transform="translate(-239.3 -411.34)"/><path class="cls-5" d="M269.3,411.34h87v20h-87Z" transform="translate(-239.3 -411.34)"/><path class="cls-6" d="M239.3,411.34h117v20h-117Z" transform="translate(-239.3 -411.34)"/></g><text class="cls-7" transform="translate(42.38 14.76)">Kritik Seth</text><text class="cls-8" transform="translate(41.83 14.07)">Kritik Seth</text><polygon class="cls-9" points="9.93 12.96 8.96 13.79 21.6 13.79 20.66 12.96 20.36 12.96 21.15 13.64 9.39 13.64 10.22 12.96 9.93 12.96"/><path class="cls-9" d="M248.16,426.56H261a.75.75,0,0,0,.31-1.44l-1.1-1a.88.88,0,0,0,.8-.88V416.5a.89.89,0,0,0-.89-.9H249a.89.89,0,0,0-.89.9v6.77a.88.88,0,0,0,.83.89l-1.13,1a.79.79,0,0,0-.32.28h0a.73.73,0,0,0-.12.41A.75.75,0,0,0,248.16,426.56Zm.29-.51a.14.14,0,0,1-.14-.14.14.14,0,0,1,.14-.15.14.14,0,0,1,.15.15A.14.14,0,0,1,248.45,426.05Zm.59,0a.14.14,0,0,1-.14-.14.14.14,0,0,1,.14-.15.14.14,0,0,1,.15.15A.14.14,0,0,1,249,426.05Zm.63,0a.14.14,0,0,1-.14-.14.14.14,0,0,1,.14-.15.14.14,0,0,1,.15.15A.14.14,0,0,1,249.67,426.05Zm5.44,0h-1.25a.14.14,0,0,1-.15-.14.14.14,0,0,1,.15-.15h1.25a.15.15,0,0,1,.15.15A.15.15,0,0,1,255.11,426.05Zm-.53-9.92a.16.16,0,0,1,.16.16.17.17,0,0,1-.16.17.18.18,0,0,1-.17-.17A.17.17,0,0,1,254.58,416.13Zm-5.62,6.7v-5.9H260.2v5.9Zm.27,1.47h.29l-.82.69h11.76l-.8-.69h.3l.94.83H248.26Z" transform="translate(-239.3 -411.34)"/></g></g></svg>